<svg xmlns="http://www.w3.org/2000/svg" aria-hidden="true" style="position:absolute;width:0;height:0;overflow:hidden"><defs><symbol id="customers_icon" viewBox="0 0 32 32"><path fill="#9197b3" d="M20.364 31.636h-8.727c-1.92 0-3.52-.189-4.873-.596a1.113 1.113 0 0 1-.785-1.135c.364-4.349 4.771-7.767 10.022-7.767s9.644 3.404 10.022 7.767c.044.524-.276.989-.785 1.135-1.353.407-2.953.596-4.873.596zM8.321 29.178c.96.189 2.051.276 3.316.276h8.727c1.265 0 2.356-.087 3.316-.276-.771-2.793-3.956-4.858-7.68-4.858s-6.909 2.066-7.68 4.858z"/><path fill="none" stroke="#9197b3" stroke-linecap="round" stroke-linejoin="round" stroke-width="2.182" d="M20.364 1.455h-8.727c-7.273 0-10.182 2.909-10.182 10.182v8.727c0 5.498 1.658 8.509 5.615 9.629.32-3.782 4.204-6.764 8.931-6.764s8.611 2.982 8.931 6.764c3.956-1.12 5.615-4.131 5.615-9.629v-8.727c0-7.273-2.909-10.182-10.182-10.182zM16 19.156c-2.88 0-5.207-2.342-5.207-5.222S13.12 8.727 16 8.727s5.207 2.327 5.207 5.207S18.88 19.156 16 19.156z"/><path fill="#9197b3" d="M16 20.247c-3.476 0-6.298-2.836-6.298-6.313S12.524 7.636 16 7.636s6.298 2.822 6.298 6.298-2.822 6.313-6.298 6.313zm0-10.429a4.125 4.125 0 0 0 0 8.247 4.125 4.125 0 0 0 0-8.247z"/></symbol><symbol id="dashboard_icon" viewBox="0 0 32 32"><path fill="none" stroke="#9197b3" stroke-linecap="round" stroke-linejoin="round" stroke-width="2.182" d="M11.636 30.545h8.727c7.273 0 10.182-2.909 10.182-10.182v-8.727c0-7.273-2.909-10.182-10.182-10.182h-8.727c-7.273 0-10.182 2.909-10.182 10.182v8.727c0 7.273 2.909 10.182 10.182 10.182z" style="stroke:var(--color1, #9197b3)"/><path fill="none" stroke="#9197b3" stroke-linecap="round" stroke-linejoin="round" stroke-miterlimit="10" stroke-width="2.182" d="M22.225 18.342a6.03 6.03 0 0 1-6.08 1.498l-3.767 3.753c-.262.276-.8.451-1.193.393l-1.745-.233c-.582-.073-1.105-.625-1.193-1.193l-.233-1.745c-.058-.378.131-.916.393-1.193l3.753-3.753a6.065 6.065 0 0 1 1.498-6.08c2.356-2.356 6.196-2.356 8.567 0 2.356 2.342 2.356 6.182 0 8.553zM13.745 22.225l-1.236-1.251" style="stroke:var(--color1, #9197b3)"/><path fill="none" stroke="#9197b3" stroke-linecap="round" stroke-linejoin="round" stroke-width="2.909" d="M18.028 14.109h.013" style="stroke:var(--color1, #9197b3)"/></symbol><symbol id="help_icon" viewBox="0 0 32 32"><path fill="#9197b3" d="M10.182 31.011c-.407 0-.829-.102-1.207-.305a2.531 2.531 0 0 1-1.338-2.24v-2.065C3.244 25.95.364 22.721.364 18.095V9.368c0-5.004 3.36-8.364 8.364-8.364h14.545c5.004 0 8.364 3.36 8.364 8.364v8.727c0 5.004-3.36 8.364-8.364 8.364h-5.484l-6.196 4.131a2.587 2.587 0 0 1-1.411.422zM8.727 3.171c-3.753 0-6.182 2.429-6.182 6.182v8.727c0 3.753 2.429 6.182 6.182 6.182a1.1 1.1 0 0 1 1.091 1.091v3.098c0 .189.116.276.189.32s.218.087.378-.015l6.473-4.305c.175-.116.393-.189.611-.189h5.818c3.753 0 6.182-2.429 6.182-6.182V9.353c0-3.753-2.429-6.182-6.182-6.182H8.727z"/><path fill="#9197b3" d="M16 16.16a1.1 1.1 0 0 1-1.091-1.091v-.305c0-1.687 1.236-2.516 1.702-2.836.538-.364.713-.611.713-.989 0-.727-.596-1.324-1.324-1.324s-1.324.596-1.324 1.324c0 .596-.495 1.091-1.091 1.091s-1.091-.495-1.091-1.091c0-1.935 1.571-3.505 3.505-3.505s3.505 1.571 3.505 3.505c0 1.658-1.222 2.487-1.673 2.793-.567.378-.742.625-.742 1.033v.305a1.09 1.09 0 0 1-1.091 1.091zM16 19.782a1.09 1.09 0 1 1-.002-2.18 1.09 1.09 0 0 1 .002 2.18z"/></symbol><symbol id="income_icon" viewBox="0 0 34 32"><path fill="none" stroke="#9197b3" stroke-linecap="round" stroke-linejoin="round" stroke-width="2.286" d="M14.86 22.644v3.093c0 2.621-2.438 4.739-5.44 4.739s-5.455-2.118-5.455-4.739v-3.093c0 2.621 2.438 4.48 5.455 4.48 3.002 0 5.44-1.874 5.44-4.48z" style="stroke:var(--color1, #9197b3)"/><path fill="none" stroke="#9197b3" stroke-linecap="round" stroke-linejoin="round" stroke-width="2.286" d="M14.857 18.453c0 .762-.213 1.463-.579 2.072-.899 1.478-2.743 2.408-4.876 2.408s-3.977-.945-4.876-2.408a3.994 3.994 0 0 1-.579-2.072c0-1.31.61-2.484 1.585-3.337.99-.869 2.347-1.387 3.855-1.387s2.865.533 3.855 1.387c1.006.838 1.615 2.027 1.615 3.337z" style="stroke:var(--color1, #9197b3)"/><path fill="none" stroke="#9197b3" stroke-linecap="round" stroke-linejoin="round" stroke-width="2.286" d="M14.86 18.453v4.19c0 2.621-2.438 4.48-5.44 4.48s-5.455-1.874-5.455-4.48v-4.19c0-2.621 2.438-4.739 5.455-4.739 1.509 0 2.865.533 3.855 1.387.975.853 1.585 2.042 1.585 3.352zM32 13.668v3.139c0 .838-.67 1.524-1.524 1.554h-2.987c-1.646 0-3.154-1.204-3.291-2.85a3.062 3.062 0 0 1 .914-2.484 3.037 3.037 0 0 1 2.194-.914h3.17c.853.03 1.524.716 1.524 1.554z" style="stroke:var(--color1, #9197b3)"/><path fill="none" stroke="#9197b3" stroke-linecap="round" stroke-linejoin="round" stroke-width="2.286" d="M1.524 12.952V9.904c0-4.145 2.499-7.04 6.385-7.528a8.105 8.105 0 0 1 1.234-.091h13.714c.396 0 .777.015 1.143.076 3.931.457 6.476 3.368 6.476 7.543v2.21h-3.17c-.853 0-1.63.335-2.194.914a3.06 3.06 0 0 0-.914 2.484c.137 1.646 1.646 2.85 3.291 2.85h2.987v2.21c0 4.571-3.048 7.619-7.619 7.619h-3.81" style="stroke:var(--color1, #9197b3)"/></symbol><symbol id="logo" viewBox="0 0 30 32"><path d="M15.031 31.891c-1.002 0-2.018-.224-2.81-.688l-8.222-4.739C.65 24.207.441 23.863.441 20.32v-8.641c0-3.543.194-3.887 3.483-6.114L12.206.781c1.57-.912 4.036-.912 5.606 0l8.252 4.754c3.349 2.257 3.558 2.601 3.558 6.144v8.626c0 3.543-.194 3.887-3.483 6.114l-8.282 4.784c-.807.463-1.824.688-2.825.688zm0-29.54c-.628 0-1.241.12-1.674.374L5.135 7.479C2.698 9.123 2.698 9.123 2.698 11.68v8.626c0 2.556 0 2.556 2.497 4.246l8.162 4.709c.882.508 2.482.508 3.364 0l8.222-4.754c2.422-1.645 2.422-1.645 2.422-4.201V11.68c0-2.556 0-2.556-2.497-4.246l-8.162-4.709c-.434-.254-1.046-.374-1.674-.374z"/><path d="M15.03 21.606c-3.095 0-5.606-2.511-5.606-5.606s2.512-5.606 5.606-5.606c3.095 0 5.606 2.511 5.606 5.606s-2.511 5.606-5.606 5.606zm0-8.97c-1.854 0-3.364 1.51-3.364 3.364s1.51 3.364 3.364 3.364c1.854 0 3.364-1.51 3.364-3.364s-1.51-3.364-3.364-3.364z"/></symbol><symbol id="product_icon" viewBox="0 0 32 32"><path fill="#9197b3" d="M20.364 31.636h-8.727C3.739 31.636.364 28.261.364 20.363v-8.727C.364 3.738 3.739.363 11.637.363h8.727c7.898 0 11.273 3.375 11.273 11.273v8.727c0 7.898-3.375 11.273-11.273 11.273zM11.636 2.545c-6.705 0-9.091 2.385-9.091 9.091v8.727c0 6.705 2.385 9.091 9.091 9.091h8.727c6.705 0 9.091-2.385 9.091-9.091v-8.727c0-6.705-2.385-9.091-9.091-9.091h-8.727z"/><path fill="#9197b3" d="M16.001 17.57c-.189 0-.378-.044-.553-.145l-7.709-4.451a1.08 1.08 0 0 1-.393-1.484 1.08 1.08 0 0 1 1.484-.393l7.156 4.145 7.113-4.116c.524-.305 1.193-.116 1.484.393s.116 1.193-.393 1.484l-7.651 4.422c-.16.087-.349.145-.538.145z"/><path fill="#9197b3" d="M16 25.484a1.1 1.1 0 0 1-1.091-1.091V16.48c0-.596.495-1.091 1.091-1.091s1.091.495 1.091 1.091v7.913A1.1 1.1 0 0 1 16 25.484z"/><path fill="#9197b3" d="M16 25.818c-.844 0-1.673-.189-2.342-.553l-4.655-2.589c-1.396-.771-2.473-2.618-2.473-4.218v-4.931c0-1.585 1.091-3.433 2.473-4.218l4.655-2.589c1.338-.742 3.345-.742 4.684 0l4.655 2.589c1.396.771 2.473 2.618 2.473 4.218v4.931c0 1.585-1.091 3.433-2.473 4.218l-4.655 2.589c-.669.378-1.498.553-2.342.553zm0-17.455c-.48 0-.945.087-1.28.276l-4.654 2.589c-.713.393-1.353 1.498-1.353 2.298v4.931c0 .815.64 1.905 1.353 2.298l4.654 2.589c.669.378 1.891.378 2.56 0l4.655-2.589c.713-.393 1.353-1.498 1.353-2.298v-4.931c0-.815-.64-1.905-1.353-2.298L17.28 8.639c-.335-.189-.8-.276-1.28-.276z"/></symbol><symbol id="promote_icon" viewBox="0 0 32 32"><path fill="#9197b3" d="M16 31.637a3.344 3.344 0 0 1-2.415-1.003l-2.211-2.211c-.175-.175-.64-.364-.873-.364H7.359a3.414 3.414 0 0 1-3.418-3.418v-3.142c0-.233-.189-.698-.364-.873l-2.211-2.211C.726 17.775.362 16.917.362 16s.349-1.775 1.004-2.415l2.211-2.211c.175-.175.364-.64.364-.873V7.359a3.414 3.414 0 0 1 3.418-3.418h3.142c.233 0 .698-.189.873-.364l2.211-2.211c1.28-1.28 3.549-1.28 4.829 0l2.211 2.211c.175.175.64.364.873.364h3.142a3.414 3.414 0 0 1 3.418 3.418v3.142c0 .233.189.698.364.873l2.211 2.211c.64.64 1.004 1.498 1.004 2.415s-.349 1.775-1.004 2.415l-2.211 2.211c-.175.175-.364.64-.364.873v3.142a3.414 3.414 0 0 1-3.418 3.418h-3.142c-.233 0-.698.189-.873.364l-2.211 2.211a3.339 3.339 0 0 1-2.415 1.003zM5.12 19.084c.582.582 1.004 1.6 1.004 2.415v3.142c0 .684.553 1.236 1.236 1.236h3.142c.815 0 1.833.422 2.415 1.003l2.211 2.211c.465.465 1.28.465 1.745 0l2.211-2.211c.582-.582 1.6-1.003 2.415-1.003h3.142c.684 0 1.236-.553 1.236-1.236v-3.142c0-.815.422-1.833 1.004-2.415l2.211-2.211c.233-.233.364-.538.364-.873s-.131-.64-.364-.873l-2.211-2.211c-.582-.582-1.004-1.6-1.004-2.415V7.359c0-.684-.553-1.236-1.236-1.236h-3.142c-.815 0-1.833-.422-2.415-1.004l-2.211-2.211c-.465-.465-1.28-.465-1.745 0l-2.211 2.211c-.582.582-1.6 1.004-2.415 1.004H7.36c-.684 0-1.236.553-1.236 1.236v3.142c0 .815-.422 1.833-1.004 2.415l-2.211 2.211c-.233.233-.364.538-.364.873s.131.64.364.873l2.211 2.211z"/><path fill="#9197b3" d="M20.364 21.818c-.815 0-1.469-.655-1.469-1.455s.655-1.455 1.455-1.455 1.455.655 1.455 1.455-.64 1.455-1.44 1.455zM11.651 13.091c-.815 0-1.469-.655-1.469-1.455s.655-1.455 1.455-1.455 1.455.655 1.455 1.455-.64 1.455-1.44 1.455zM11.636 21.454a1.08 1.08 0 0 1-.771-.32 1.097 1.097 0 0 1 0-1.542l8.727-8.727c.422-.422 1.12-.422 1.542 0s.422 1.12 0 1.542l-8.727 8.727a1.08 1.08 0 0 1-.771.32z"/></symbol><symbol id="right-arrow" viewBox="0 0 19 32"><path fill="none" stroke-linecap="round" stroke-linejoin="round" stroke-width="6.4" d="M3.2 28.8 16 16 3.2 3.2"/></symbol><symbol id="search_icon" viewBox="0 0 32 32"><path fill="none" stroke="#7e7e7e" stroke-linejoin="round" stroke-width="3.048" d="M13.714 25.905c-6.735 0-12.19-5.47-12.19-12.19 0-6.735 5.455-12.19 12.19-12.19 6.72 0 12.19 5.455 12.19 12.19 0 6.72-5.47 12.19-12.19 12.19z"/><path fill="none" stroke="#7e7e7e" stroke-linecap="round" stroke-linejoin="round" stroke-width="3.048" d="m28.952 28.952-6.629-6.629"/></symbol></defs></svg>